<svg width="117" height="37" viewBox="0 0 117 37" fill="none" xmlns="http://www.w3.org/2000/svg">
<path d="M0.850048 0L25.21 0.0999999C25.2923 0.0999999 25.3711 0.132661 25.4292 0.190797C25.4874 0.248933 25.52 0.327783 25.52 0.41L25.49 12.27C25.49 12.3107 25.482 12.351 25.4664 12.3886C25.4509 12.4262 25.428 12.4604 25.3993 12.4892C25.3705 12.518 25.3363 12.5408 25.2987 12.5564C25.2611 12.572 25.2208 12.58 25.18 12.58L12.87 12.41C12.7911 12.4078 12.716 12.3756 12.66 12.32L0.640048 0.53C0.596938 0.487246 0.567332 0.432774 0.554904 0.373343C0.542476 0.313913 0.547773 0.252142 0.570139 0.195696C0.592504 0.13925 0.630953 0.0906137 0.680713 0.0558243C0.730474 0.0210349 0.789354 0.00162395 0.850048 0Z" fill="#8F8F8F"/>
<path d="M43.67 10.1902C43.0567 10.1702 42.75 10.4668 42.75 11.0802V14.0502C42.75 14.6568 43.0534 14.9602 43.66 14.9602H49.33C50.41 14.9602 50.84 15.4868 50.62 16.5402L50.53 16.9402C50.477 17.1951 50.3376 17.4239 50.1354 17.5879C49.9331 17.7519 49.6804 17.841 49.42 17.8402H43.48C43.3776 17.8401 43.2763 17.8607 43.1821 17.9008C43.0879 17.9408 43.0027 17.9995 42.9317 18.0733C42.8608 18.1471 42.8054 18.2344 42.769 18.3301C42.7327 18.4258 42.716 18.5279 42.72 18.6302L42.87 23.9202C42.8767 24.3002 42.6967 24.5302 42.33 24.6102C41.55 24.7902 40.7067 24.8335 39.8 24.7402C39.4134 24.7002 39.2167 24.4835 39.21 24.0902L39.15 7.81018C39.15 7.69199 39.1733 7.57496 39.2185 7.46577C39.2638 7.35657 39.3301 7.25736 39.4136 7.17379C39.4972 7.09021 39.5964 7.02392 39.7056 6.97869C39.8148 6.93346 39.9318 6.91018 40.05 6.91018L49.54 6.88018C50.7334 6.87352 51.3034 7.47018 51.25 8.67018L51.23 9.07018C51.2119 9.43368 51.051 9.77555 50.7817 10.0224C50.5125 10.2692 50.1564 10.4012 49.79 10.3902L43.67 10.1902Z" fill="#8F8F8F"/>
<path d="M59.21 11.75C59.3522 11.7 59.5045 11.6861 59.6534 11.7095C59.8022 11.7329 59.9429 11.7928 60.0629 11.8841C60.1828 11.9753 60.2783 12.0948 60.3406 12.232C60.4029 12.3692 60.4302 12.5197 60.42 12.67L60.34 13.62C60.2667 14.5467 59.77 15.0567 58.85 15.15C58.05 15.2234 57.2867 15.4334 56.56 15.78C56.3889 15.8641 56.2448 15.9939 56.144 16.1548C56.0433 16.3156 55.9899 16.5011 55.99 16.69L56.04 23.92C56.0467 24.5 55.7633 24.7967 55.19 24.81L53.76 24.86C53.0933 24.88 52.7567 24.5567 52.75 23.89L52.64 12.83C52.6397 12.6497 52.6825 12.4718 52.7649 12.3114C52.8473 12.1509 52.967 12.0126 53.1138 11.9078C53.2606 11.8031 53.4304 11.735 53.609 11.7093C53.7875 11.6836 53.9696 11.701 54.14 11.76C55.82 12.3534 57.51 12.35 59.21 11.75Z" fill="#8F8F8F"/>
<path d="M112.11 16.05L112.2 23.98C112.2 24.0886 112.179 24.196 112.137 24.2962C112.096 24.3963 112.035 24.4872 111.959 24.5634C111.883 24.6397 111.792 24.6999 111.693 24.7405C111.594 24.7811 111.487 24.8014 111.38 24.8H109.75C109.54 24.8 109.34 24.7158 109.191 24.5657C109.043 24.4157 108.96 24.2122 108.96 24L108.95 12.49C108.949 12.3775 108.975 12.2664 109.026 12.1659C109.076 12.0654 109.15 11.9784 109.241 11.912C109.332 11.8455 109.437 11.8017 109.548 11.7839C109.659 11.7662 109.773 11.7752 109.88 11.81C111.793 12.4434 113.69 12.43 115.57 11.77C116.13 11.57 116.48 11.76 116.62 12.34C116.767 12.98 116.77 13.6234 116.63 14.27C116.543 14.6634 116.3 14.8834 115.9 14.93L112.8 15.28C112.608 15.3024 112.431 15.3936 112.303 15.5359C112.176 15.6782 112.107 15.8615 112.11 16.05Z" fill="#9E9E9E"/>
<path d="M69.68 16.78C69.78 15.9667 69.3267 15.2667 68.32 14.68C68.0771 14.5412 67.808 14.4536 67.5294 14.4226C67.2508 14.3917 66.9686 14.418 66.7 14.5C65.37 14.92 63.42 16.07 62.07 15.6C61.9834 15.5699 61.9052 15.5196 61.8418 15.4534C61.7784 15.3871 61.7316 15.3068 61.7052 15.219C61.6789 15.1311 61.6737 15.0383 61.6902 14.9481C61.7067 14.8579 61.7443 14.7729 61.8 14.7C63.94 11.9134 66.6533 11.16 69.94 12.44C71.45 13.03 72.18 14.77 72.21 16.31C72.2633 18.83 72.3233 21.43 72.39 24.11C72.3927 24.1831 72.3807 24.2559 72.3549 24.3243C72.3291 24.3927 72.2899 24.4553 72.2396 24.5084C72.1894 24.5614 72.129 24.604 72.0621 24.6334C71.9952 24.6629 71.9231 24.6787 71.85 24.68L65.58 24.83C63.04 24.89 61.6333 23.66 61.36 21.14C61.3 20.54 61.3533 19.93 61.52 19.31C61.6746 18.7441 61.9933 18.2364 62.4363 17.8504C62.8792 17.4643 63.4266 17.2172 64.01 17.14C65.7433 16.9134 67.38 16.97 68.92 17.31C69.3667 17.41 69.62 17.2334 69.68 16.78ZM69.5699 20.8841C69.5719 20.6517 69.5025 20.4209 69.3657 20.205C69.2289 19.989 69.0273 19.7921 68.7724 19.6255C68.5176 19.4589 68.2145 19.3259 67.8804 19.2341C67.5463 19.1422 67.1878 19.0933 66.8254 19.0901C66.0935 19.0837 65.3899 19.2641 64.8694 19.5915C64.3489 19.9189 64.0542 20.3665 64.0501 20.8359C64.0481 21.0684 64.1175 21.2991 64.2543 21.5151C64.3911 21.731 64.5927 21.9279 64.8476 22.0945C65.1024 22.2611 65.4055 22.3941 65.7396 22.486C66.0737 22.5779 66.4322 22.6268 66.7946 22.6299C67.5266 22.6363 68.2301 22.456 68.7506 22.1286C69.2711 21.8012 69.5658 21.3535 69.5699 20.8841Z" fill="#9E9E9E"/>
<path d="M85.72 16.8301L85.78 24.1501C85.7867 24.7034 85.5134 24.9734 84.96 24.9601L83.24 24.9201C82.72 24.9134 82.46 24.6468 82.46 24.1201L82.5 16.3301C82.5067 15.1101 81.9067 14.5868 80.7 14.7601L79.77 14.9001C78.6434 15.0601 78.0933 15.7101 78.12 16.8501L78.27 24.0001C78.2834 24.6268 77.98 24.9401 77.36 24.9401H75.85C75.2167 24.9334 74.9033 24.6134 74.91 23.9801L75.03 12.7601C75.0367 12.3868 75.2267 12.1734 75.6 12.1201C76.0734 12.0534 76.5534 12.0668 77.04 12.1601C78.34 12.4001 79.63 12.2401 80.91 11.9501C82.29 11.6401 83.52 12.1601 84.71 12.7901C84.8915 12.8881 85.095 12.9394 85.3026 12.9394C85.5103 12.9394 85.7155 12.8881 85.9 12.7901C89.42 10.9601 93.1 11.6401 93.12 16.2701C93.1333 18.8301 93.1933 21.3901 93.3 23.9501C93.3267 24.6634 92.9834 25.0068 92.27 24.9801L90.8 24.9201C90.1667 24.8934 89.86 24.5634 89.88 23.9301L90.17 16.3801C90.2234 15.0268 89.58 14.4468 88.24 14.6401L87.5 14.7501C86.3 14.9234 85.7067 15.6168 85.72 16.8301Z" fill="#9E9E9E"/>
<path d="M98.52 19.1301C98.46 19.1298 98.4006 19.1421 98.3457 19.1662C98.2907 19.1903 98.2414 19.2256 98.2009 19.2698C98.1604 19.3141 98.1296 19.3664 98.1105 19.4232C98.0914 19.4801 98.0845 19.5404 98.09 19.6001C98.27 22.1301 100.99 23.3501 103.09 21.9401C103.77 21.4868 104.497 21.1534 105.27 20.9401C106.437 20.6201 106.787 21.0201 106.32 22.1401C104.47 26.5701 96.78 25.5001 95.7 20.8101C94.5 15.5901 97.02 11.0701 102.99 12.0101C104.763 12.2968 105.89 13.3034 106.37 15.0301L106.98 17.2801C107.32 18.5134 106.85 19.1301 105.57 19.1301H98.52ZM98.44 17.3901L104.05 16.9601C104.065 16.9588 104.079 16.9547 104.091 16.948C104.104 16.9413 104.116 16.9321 104.125 16.9209C104.134 16.9098 104.141 16.8969 104.146 16.883C104.15 16.8691 104.151 16.8545 104.15 16.8401L104.14 16.7801C104.085 16.0913 103.738 15.454 103.173 15.0079C102.609 14.5617 101.874 14.3432 101.13 14.4001L100.93 14.4101C100.561 14.4387 100.2 14.5343 99.8694 14.6915C99.5384 14.8487 99.2433 15.0643 99.0009 15.3262C98.7585 15.5881 98.5737 15.891 98.4568 16.2177C98.34 16.5443 98.2935 16.8884 98.32 17.2301L98.33 17.2901C98.3325 17.3175 98.3452 17.343 98.3656 17.3615C98.3859 17.38 98.4125 17.3902 98.44 17.3901Z" fill="#9E9E9E"/>
<path d="M12.71 25.4801L12.76 36.4501C12.7608 36.5385 12.7355 36.6251 12.6873 36.6992C12.6392 36.7733 12.5703 36.8315 12.4893 36.8667C12.4082 36.9019 12.3186 36.9125 12.2316 36.8971C12.1446 36.8817 12.0641 36.841 12 36.7801L0.130015 24.8901C0.0883383 24.848 0.0553991 24.798 0.0330897 24.7431C0.0107804 24.6882 -0.00045974 24.6294 1.43986e-05 24.5701V12.8501C1.43986e-05 12.7308 0.0474246 12.6163 0.131816 12.5319C0.216207 12.4476 0.330667 12.4001 0.450014 12.4001L12.65 12.5301C12.7663 12.5318 12.8774 12.5784 12.96 12.6601L24.6 24.2801C24.6637 24.3431 24.7071 24.4236 24.7248 24.5114C24.7425 24.5991 24.7335 24.6902 24.6992 24.7729C24.6648 24.8555 24.6066 24.9261 24.5319 24.9755C24.4572 25.0249 24.3695 25.0509 24.28 25.0501L13.16 25.0301C13.0407 25.0301 12.9262 25.0776 12.8418 25.1619C12.7574 25.2463 12.71 25.3608 12.71 25.4801Z" fill="#8F8F8F"/>
</svg>
