<svg width="148" height="22" viewBox="0 0 148 22" fill="none" xmlns="http://www.w3.org/2000/svg">
<path d="M139.289 16.1281C139.335 17.0214 139.809 17.4914 140.709 17.5381C141.055 17.5581 141.302 17.4114 141.449 17.0981C142.295 15.2314 142.019 13.5847 140.619 12.1581C140.429 11.9653 140.301 11.721 140.251 11.4556C140.2 11.1903 140.229 10.9159 140.333 10.6669C140.438 10.4179 140.614 10.2054 140.839 10.0562C141.064 9.9069 141.329 9.82754 141.599 9.82806H146.589C146.782 9.82806 146.968 9.90497 147.105 10.0419C147.242 10.1788 147.319 10.3644 147.319 10.5581C147.339 14.3181 148.559 19.7981 143.689 21.1081C140.269 22.0181 133.729 21.5981 133.649 16.8581C133.582 13.3247 133.539 9.87806 133.519 6.51806C133.512 4.95806 133.755 3.70472 134.249 2.75806C135.909 -0.371944 141.059 -0.441943 143.939 0.608057C146.505 1.54139 147.625 3.45806 147.299 6.35806C147.252 6.81139 147.002 7.03806 146.549 7.03806L142.649 7.07806C142.462 7.07783 142.28 7.01036 142.138 6.88767C141.995 6.76497 141.899 6.59501 141.869 6.40806L141.639 4.83806C141.616 4.69051 141.563 4.54948 141.481 4.42455C141.399 4.29962 141.292 4.19372 141.166 4.11404C141.04 4.03435 140.898 3.98275 140.75 3.96274C140.602 3.94273 140.452 3.95477 140.309 3.99806C139.682 4.18472 139.355 4.62472 139.329 5.31806C139.155 9.61139 139.142 13.2147 139.289 16.1281Z" fill="#909090"/>
<path d="M6.39873 4.54791C5.51873 5.38791 5.79873 6.49791 6.74873 7.07791C11.1587 9.78791 15.5087 10.5579 14.5187 17.1379C13.5587 23.5079 -0.841274 23.6279 0.0387257 15.2079C0.0787257 14.8346 0.28206 14.6179 0.648726 14.5579C1.92873 14.3379 3.26539 14.3279 4.65873 14.5279C5.65873 14.6746 6.16873 15.2712 6.18873 16.3179C6.20873 16.9912 6.54206 17.4179 7.18873 17.5979C7.46873 17.6712 7.75873 17.6112 8.05873 17.4179C8.61873 17.0646 8.86539 16.5579 8.79873 15.8979C8.57873 13.8479 5.67873 12.8079 4.01873 12.1079C0.708726 10.6979 0.0387263 7.12791 0.688726 4.00791C1.05539 2.27458 2.44873 1.11458 4.86873 0.52791C8.22206 -0.285423 11.0887 0.23791 13.4687 2.09791C13.7159 2.2933 13.8945 2.56301 13.9787 2.86791C14.2787 4.00791 14.3787 5.18124 14.2787 6.38791C14.2521 6.77458 14.0421 6.99458 13.6487 7.04791C12.0687 7.26791 8.81873 7.71791 8.58873 5.35791C8.56416 5.11591 8.47219 4.88566 8.32328 4.69333C8.17436 4.501 7.97448 4.3543 7.74634 4.26992C7.5182 4.18554 7.27096 4.16686 7.03274 4.21601C6.79451 4.26515 6.57485 4.38014 6.39873 4.54791Z" fill="#909090"/>
<path d="M76.5287 4.20798C75.7821 4.03465 75.2054 4.26132 74.7987 4.88798C74.5873 5.21441 74.5138 5.61132 74.5944 5.9918C74.675 6.37229 74.9031 6.70533 75.2287 6.91798C76.7487 7.89798 78.4587 8.86465 80.3587 9.81798C83.1887 11.248 83.4087 13.688 83.2987 16.508C83.1087 21.258 77.6887 22.068 73.9187 21.488C70.5454 20.9746 68.9021 18.918 68.9887 15.318C68.9939 15.12 69.0753 14.9318 69.2154 14.7936C69.3554 14.6553 69.5432 14.578 69.7387 14.578C71.3787 14.568 74.9687 13.768 74.9287 16.518C74.9154 17.1313 75.2021 17.5213 75.7887 17.688C76.0154 17.7546 76.2454 17.7646 76.4787 17.718C77.1721 17.5846 77.5554 17.168 77.6287 16.468C77.7421 15.3346 77.3087 14.4813 76.3287 13.908C72.2087 11.498 69.2587 11.398 69.3587 5.52798C69.4487 -0.552018 76.9087 -0.412018 80.9487 1.17798C83.1587 2.04798 83.2287 4.42798 83.0587 6.39798C83.0415 6.58533 82.9562 6.75959 82.8195 6.88705C82.6828 7.01451 82.5044 7.0861 82.3187 7.08798L78.9187 7.14798C78.737 7.14783 78.5575 7.10739 78.3932 7.02958C78.229 6.95177 78.084 6.83852 77.9687 6.69798C77.5621 6.20465 77.3154 5.63465 77.2287 4.98798C77.2051 4.79991 77.1251 4.62402 76.9998 4.48439C76.8745 4.34476 76.71 4.24822 76.5287 4.20798Z" fill="#909090"/>
<path d="M27.2687 6.19812C27.1687 6.22479 27.112 6.28813 27.0987 6.38813C26.4454 10.8748 25.8587 15.3881 25.3387 19.9281C25.3081 20.1869 25.1857 20.4265 24.9934 20.6042C24.8011 20.7818 24.5514 20.886 24.2887 20.8981L20.6587 21.0181C19.892 21.0448 19.572 20.6815 19.6987 19.9281L22.8787 1.44812C22.9387 1.07479 23.1554 0.891458 23.5287 0.898125L31.2387 1.01812C31.4384 1.0201 31.6311 1.09234 31.7828 1.22217C31.9346 1.352 32.0358 1.53112 32.0687 1.72812L35.0087 19.9881C35.102 20.5948 34.842 20.8981 34.2287 20.8981H30.5787C30.2835 20.8977 29.9988 20.7893 29.7793 20.5938C29.5597 20.3982 29.4207 20.1292 29.3887 19.8381L27.9187 6.65812C27.8787 6.25812 27.662 6.10479 27.2687 6.19812Z" fill="#909090"/>
<path d="M46.1787 7.37789L46.0687 19.9679C46.0687 20.7012 45.702 21.0712 44.9687 21.0779L41.8487 21.0879C41.1887 21.0946 40.8654 20.7679 40.8787 20.1079L41.3187 1.72789C41.332 1.22789 41.5887 0.977891 42.0887 0.977891H49.3687C49.942 0.977891 50.272 1.26456 50.3587 1.83789C50.792 4.73789 51.1854 7.71789 51.5387 10.7779C51.572 11.0846 51.752 11.2646 52.0787 11.3179C52.1241 11.3264 52.1709 11.3256 52.216 11.3155C52.2611 11.3054 52.3037 11.2862 52.3411 11.259C52.3786 11.2319 52.4101 11.1974 52.4337 11.1576C52.4574 11.1179 52.4727 11.0737 52.4787 11.0279L53.8287 1.77789C53.8671 1.51664 53.9973 1.27793 54.1956 1.10534C54.3939 0.932759 54.647 0.837828 54.9087 0.837891L61.6087 0.847891C62.2954 0.847891 62.6487 1.19122 62.6687 1.87789L63.0987 19.8279C63.1027 19.9924 63.0736 20.156 63.0132 20.3093C62.9528 20.4625 62.8622 20.6023 62.7468 20.7205C62.6314 20.8387 62.4935 20.933 62.341 20.9977C62.1885 21.0625 62.0245 21.0966 61.8587 21.0979L58.7987 21.1079C58.0987 21.1079 57.752 20.7579 57.7587 20.0579L57.8787 6.80789C57.8787 6.70789 57.8287 6.66456 57.7287 6.67789L57.3787 6.71789C57.2654 6.73123 57.202 6.79122 57.1887 6.89789L55.1487 19.6779C55.0871 20.0666 54.8893 20.4208 54.5908 20.6772C54.2922 20.9336 53.9122 21.0756 53.5187 21.0779L50.6687 21.1079C50.2694 21.1111 49.8819 20.9719 49.5759 20.7154C49.2699 20.4588 49.0652 20.1017 48.9987 19.7079L46.8787 7.31789C46.8707 7.22506 46.8262 7.1392 46.755 7.07919C46.6837 7.01918 46.5915 6.98993 46.4987 6.99789C46.4059 7.00585 46.32 7.05035 46.26 7.12162C46.2 7.19288 46.1707 7.28507 46.1787 7.37789Z" fill="#909090"/>
<path d="M95.4288 16.218C95.4544 16.5219 95.5849 16.8109 95.7988 17.038C96.1921 17.458 96.6155 17.6514 97.0688 17.618C97.7355 17.5714 98.0855 17.2147 98.1188 16.548C98.3588 11.848 98.3221 6.90802 98.0088 1.72802C98.0019 1.61273 98.0189 1.49725 98.0586 1.38882C98.0984 1.28038 98.1601 1.1813 98.2398 1.09778C98.3196 1.01425 98.4157 0.948077 98.5222 0.903383C98.6287 0.858689 98.7433 0.836437 98.8588 0.838017L103.339 0.878017C103.879 0.878017 104.145 1.15135 104.139 1.69802C104.059 6.28468 104.032 10.8947 104.059 15.528C104.089 20.398 99.4988 22.038 95.3588 21.548C91.3121 21.0747 89.3155 18.878 89.3688 14.958C89.4355 10.3114 89.4288 5.91468 89.3488 1.76802C89.3355 1.11468 89.6555 0.794684 90.3088 0.808017L94.5588 0.878017C95.1121 0.884684 95.3688 1.16802 95.3288 1.72802C94.9821 6.16135 95.0154 10.9914 95.4288 16.218Z" fill="#909090"/>
<path d="M116.029 10.0581C115.915 13.4714 116.045 16.7747 116.419 19.9681C116.492 20.6081 116.209 20.9447 115.569 20.9781L112.099 21.1381C111.959 21.1448 111.82 21.1232 111.689 21.0745C111.558 21.0258 111.439 20.951 111.338 20.8546C111.237 20.7583 111.157 20.6425 111.102 20.5141C111.047 20.3858 111.019 20.2476 111.019 20.1081L111.039 1.49805C111.039 1.15805 111.205 0.971384 111.539 0.938051C113.279 0.728051 117.459 0.22805 118.249 2.32805C119.309 5.16138 120.462 8.01805 121.709 10.8981C122.589 12.9447 122.995 12.8547 122.929 10.6281L122.669 1.55805C122.655 1.07805 122.892 0.83805 123.379 0.83805L127.339 0.87805C127.812 0.87805 128.049 1.11805 128.049 1.59805L128.039 20.4081C128.039 20.5761 127.973 20.7374 127.855 20.8571C127.737 20.9768 127.577 21.0454 127.409 21.0481L122.639 21.0981C122.303 21.1013 121.974 21.0027 121.696 20.8152C121.417 20.6278 121.202 20.3603 121.079 20.0481C119.605 16.3081 118.139 12.9314 116.679 9.91805C116.272 9.08472 116.055 9.13138 116.029 10.0581Z" fill="#909090"/>
</svg>
