<svg width="147" height="22" viewBox="0 0 147 22" fill="none" xmlns="http://www.w3.org/2000/svg">
<path d="M20.1905 16.079C20.4372 15.2056 19.9872 14.6323 18.8405 14.359C14.6739 13.3523 10.5072 12.349 6.34053 11.349C3.52053 10.679 -0.649474 7.77898 1.07053 4.39898C4.57053 -2.44102 20.5805 0.238981 26.7305 2.22898C27.2239 2.38898 27.3472 2.69898 27.1005 3.15898L25.9705 5.27898C25.8067 5.58721 25.5371 5.82627 25.2106 5.95285C24.8841 6.07943 24.5222 6.08516 24.1905 5.96898C19.1772 4.20231 14.4205 3.41565 9.92053 3.60898C9.68207 3.61829 9.44967 3.68831 9.24505 3.81248C9.04043 3.93665 8.87028 4.11092 8.75053 4.31898C8.21719 5.23232 8.43053 5.81898 9.39053 6.07898C12.6839 6.95898 15.8905 7.66565 19.0105 8.19898C21.4405 8.60898 27.3805 10.429 27.9405 13.559C28.5405 16.979 26.4905 19.099 23.3105 20.039C16.0205 22.209 7.85053 20.719 0.530527 18.129C-0.0294734 17.929 -0.14614 17.5823 0.180526 17.089L2.00053 14.299C2.30053 13.8323 2.70719 13.7123 3.22053 13.939C8.50053 16.279 13.5805 17.739 19.4405 16.749C19.6161 16.7222 19.7803 16.6448 19.9133 16.5259C20.0464 16.407 20.1427 16.2518 20.1905 16.079Z" fill="#8F8F8F"/>
<path d="M109.701 13.1691L116.991 19.1991C117.917 19.9657 117.781 20.3457 116.581 20.3391L111.041 20.3191C109.761 20.3124 108.644 19.8857 107.691 19.0391L99.9806 12.2091C98.3872 10.7957 98.6506 10.1691 100.771 10.3291C102.657 10.4757 104.487 10.4291 106.261 10.1891C108.081 9.94905 110.641 8.22905 109.631 6.04905C108.251 3.05905 101.741 3.37905 98.8206 3.66905C98.1139 3.74239 97.7639 4.13239 97.7706 4.83906L97.7806 19.6091C97.7806 19.7983 97.705 19.9799 97.5703 20.1147C97.4355 20.2494 97.2524 20.3264 97.0606 20.3291L91.8006 20.3391C91.2606 20.3391 90.9872 20.0691 90.9806 19.5291L90.8406 1.57905C90.8406 1.44038 90.8894 1.30582 90.9787 1.19826C91.0681 1.0907 91.1924 1.01678 91.3306 0.989055C96.3306 -0.000945389 116.201 -1.65095 117.081 5.67905C117.591 9.92905 113.681 11.8391 110.021 12.1391C109.905 12.1478 109.794 12.1913 109.703 12.2637C109.612 12.3362 109.545 12.4343 109.511 12.5453C109.476 12.6563 109.476 12.7752 109.51 12.8864C109.544 12.9976 109.61 13.0961 109.701 13.1691Z" fill="#8F8F8F"/>
<path d="M127.411 13.379C127.31 13.3613 127.207 13.3656 127.109 13.3918C127.011 13.4179 126.92 13.4652 126.842 13.5302C126.765 13.5952 126.703 13.6763 126.661 13.7678C126.619 13.8592 126.599 13.9587 126.601 14.059L126.631 19.609C126.631 20.149 126.361 20.4257 125.821 20.439L120.891 20.569C120.231 20.589 119.897 20.269 119.891 19.609L119.871 1.83902C119.871 1.25902 120.161 0.922353 120.741 0.82902C125.187 0.155686 129.631 -0.100981 134.071 0.0590194C138.961 0.229019 149.091 2.18902 145.681 9.26902C143.181 14.459 132.051 14.249 127.411 13.379ZM126.641 5.08902L126.601 8.72902C126.599 8.92206 126.636 9.11348 126.709 9.29233C126.781 9.47118 126.889 9.63397 127.024 9.77141C127.16 9.90884 127.321 10.0182 127.499 10.0933C127.677 10.1684 127.868 10.2077 128.061 10.209L133.531 10.259C134.222 10.2653 134.908 10.1892 135.549 10.0352C136.189 9.88116 136.772 9.65222 137.263 9.36148C137.754 9.07073 138.145 8.72389 138.412 8.34081C138.68 7.95773 138.818 7.54594 138.821 7.12902V6.88902C138.825 6.04952 138.277 5.24008 137.297 4.6383C136.316 4.03651 134.984 3.69152 133.591 3.67902L128.121 3.62902C127.928 3.6277 127.736 3.66442 127.557 3.73708C127.378 3.80974 127.216 3.91692 127.078 4.05249C126.941 4.18807 126.831 4.34938 126.756 4.52723C126.681 4.70508 126.642 4.89598 126.641 5.08902Z" fill="#8F8F8F"/>
<path d="M36.3506 20.3092L31.1306 20.3392C30.936 20.3392 30.7493 20.2626 30.6108 20.126C30.4723 19.9894 30.3932 19.8037 30.3906 19.6092L30.2806 1.46919C30.2792 1.37033 30.2977 1.2722 30.3349 1.18059C30.3721 1.08899 30.4273 1.00578 30.4973 0.935862C30.5672 0.865948 30.6504 0.810754 30.742 0.77354C30.8336 0.736325 30.9317 0.717844 31.0306 0.71919L36.3206 0.75919C36.4195 0.759154 36.5174 0.778936 36.6085 0.817369C36.6996 0.855802 36.7821 0.912105 36.851 0.982953C36.92 1.0538 36.9741 1.13776 37.0101 1.22986C37.0461 1.32196 37.0633 1.42034 37.0606 1.51919L36.8606 7.39919C36.8579 7.49889 36.8754 7.5981 36.912 7.69087C36.9486 7.78364 37.0035 7.86806 37.0736 7.93904C37.1437 8.01003 37.2273 8.06612 37.3196 8.10395C37.4119 8.14179 37.5109 8.16057 37.6106 8.15919L49.3206 8.05919C49.4186 8.0579 49.5154 8.03714 49.6054 7.99812C49.6953 7.95909 49.7766 7.90259 49.8445 7.83187C49.9125 7.76116 49.9657 7.67766 50.001 7.58621C50.0364 7.49477 50.0532 7.3972 50.0506 7.29919L49.9306 1.42919C49.9279 1.33034 49.9451 1.23196 49.9811 1.13986C50.0171 1.04776 50.0711 0.963801 50.1401 0.892953C50.2091 0.822105 50.2916 0.765802 50.3827 0.727369C50.4738 0.688936 50.5717 0.669153 50.6706 0.66919H55.9206C56.1168 0.66919 56.3051 0.747154 56.4438 0.885931C56.5826 1.02471 56.6606 1.21293 56.6606 1.40919L56.6006 19.6492C56.6006 19.8454 56.5226 20.0337 56.3838 20.1724C56.2451 20.3112 56.0568 20.3892 55.8606 20.3892L50.6506 20.3692C50.5517 20.3692 50.4538 20.3494 50.3627 20.311C50.2716 20.2726 50.1891 20.2163 50.1201 20.1454C50.0511 20.0746 49.9971 19.9906 49.9611 19.8985C49.9251 19.8064 49.9079 19.708 49.9106 19.6092L50.0606 13.2192C50.0619 13.122 50.0441 13.0255 50.0081 12.9352C49.9721 12.8449 49.9187 12.7626 49.8509 12.693C49.7831 12.6233 49.7023 12.5677 49.613 12.5293C49.5237 12.4909 49.4278 12.4705 49.3306 12.4692L37.6806 12.3892C37.5817 12.3892 37.4838 12.4089 37.3927 12.4474C37.3016 12.4858 37.2191 12.5421 37.1501 12.613C37.0811 12.6838 37.0271 12.7678 36.9911 12.8599C36.9551 12.952 36.9379 13.0503 36.9406 13.1492L37.0806 19.5492C37.0832 19.6472 37.0664 19.7448 37.031 19.8362C36.9957 19.9277 36.9425 20.0112 36.8745 20.0819C36.8066 20.1526 36.7253 20.2091 36.6354 20.2481C36.5454 20.2871 36.4486 20.3079 36.3506 20.3092Z" fill="#8F8F8F"/>
<path d="M79.0206 16.479L65.6606 16.499C65.5935 16.4989 65.5275 16.5153 65.4682 16.5466C65.4089 16.578 65.3582 16.6235 65.3206 16.679L63.0206 20.159C62.983 20.2145 62.9323 20.26 62.873 20.2913C62.8137 20.3227 62.7477 20.3391 62.6806 20.339L58.7106 20.319C58.6383 20.3186 58.5674 20.2991 58.5051 20.2625C58.4428 20.2259 58.3912 20.1735 58.3557 20.1106C58.3202 20.0476 58.3019 19.9764 58.3028 19.9041C58.3036 19.8318 58.3236 19.7611 58.3606 19.699L69.6606 0.928994C69.6968 0.868335 69.748 0.818049 69.8093 0.783009C69.8706 0.747968 69.94 0.729362 70.0106 0.728994L77.5806 0.718994C77.6512 0.719363 77.7206 0.737969 77.7819 0.773009C77.8432 0.808049 77.8944 0.858335 77.9306 0.918994L89.3406 19.729C89.3781 19.7918 89.3981 19.8635 89.3985 19.9366C89.3989 20.0098 89.3798 20.0817 89.3431 20.1449C89.3063 20.2082 89.2534 20.2605 89.1896 20.2964C89.1259 20.3322 89.0537 20.3504 88.9806 20.349L81.7806 20.279C81.71 20.2786 81.6406 20.26 81.5793 20.225C81.518 20.1899 81.4668 20.1397 81.4306 20.079L79.3706 16.679C79.3344 16.6183 79.2832 16.568 79.2219 16.533C79.1606 16.498 79.0912 16.4794 79.0206 16.479ZM76.1906 12.279C76.2433 12.279 76.295 12.2652 76.3407 12.2389C76.3863 12.2126 76.4242 12.1747 76.4506 12.1291C76.4769 12.0835 76.4908 12.0317 76.4908 11.979C76.4908 11.9264 76.4769 11.8746 76.4506 11.829L72.6506 5.19899C72.6237 5.15558 72.5862 5.11976 72.5415 5.09491C72.4969 5.07007 72.4467 5.05703 72.3956 5.05703C72.3445 5.05703 72.2943 5.07007 72.2497 5.09491C72.205 5.11976 72.1675 5.15558 72.1406 5.19899L67.9706 11.989C67.9443 12.0346 67.9304 12.0864 67.9304 12.139C67.9304 12.1917 67.9443 12.2435 67.9706 12.2891C67.997 12.3347 68.0349 12.3726 68.0805 12.3989C68.1262 12.4252 68.1779 12.439 68.2306 12.439L76.1906 12.279Z" fill="#8F8F8F"/>
</svg>
