<svg width="117" height="33" viewBox="0 0 117 33" fill="none" xmlns="http://www.w3.org/2000/svg">
<path d="M6.68507 6.87095C7.06507 4.27095 9.48507 -0.349052 12.8751 0.0209481C14.6351 0.210948 17.3151 1.19095 17.9451 3.09095C18.0451 3.39762 18.2384 3.62095 18.5251 3.76095C18.8584 3.92095 19.0151 4.18428 18.9951 4.55095L17.3451 31.2509C17.3383 31.3537 17.3099 31.4538 17.2616 31.5448C17.2134 31.6358 17.1465 31.7155 17.0653 31.7788C16.9841 31.842 16.8904 31.8874 16.7904 31.9119C16.6904 31.9364 16.5863 31.9395 16.4851 31.9209L0.525072 28.8809C0.36404 28.8516 0.220393 28.7616 0.123672 28.6295C0.0269502 28.4974 -0.0154922 28.3333 0.00507273 28.1709L2.39507 10.1309C2.49507 9.33095 2.92174 8.78762 3.67507 8.50095L6.13507 7.56095C6.45507 7.44095 6.63841 7.21095 6.68507 6.87095ZM10.6551 5.19095C10.9084 3.95761 11.5384 2.92095 12.5451 2.08095C12.6169 2.02057 12.6624 1.93452 12.6717 1.84111C12.6811 1.74771 12.6536 1.65436 12.5951 1.58095L12.3951 1.33095C12.3282 1.24848 12.2443 1.18138 12.149 1.13408C12.0538 1.08679 11.9493 1.06038 11.8425 1.05659C11.7356 1.05281 11.6289 1.07175 11.5294 1.11215C11.4299 1.15255 11.3398 1.21349 11.2651 1.29095C9.84507 2.77762 8.70174 4.37095 7.83507 6.07095C7.6484 6.43095 7.74507 6.68428 8.12507 6.83095C8.47841 6.96428 8.83174 6.97095 9.18507 6.85095C9.55359 6.72649 9.88314 6.5078 10.141 6.2166C10.3989 5.9254 10.5761 5.57181 10.6551 5.19095ZM16.4251 2.98095C14.1051 2.48095 12.5184 3.08761 11.6651 4.80095C11.5184 5.08761 11.5917 5.29428 11.8851 5.42095C13.5251 6.12095 14.9151 4.28095 16.4651 3.81095C17.5051 3.48428 17.4917 3.20761 16.4251 2.98095ZM8.01507 24.0609C7.40174 24.0209 6.61174 23.7876 5.64507 23.3609C4.95174 23.0609 4.54174 23.2843 4.41507 24.0309L4.33507 24.5009C4.1684 25.4543 4.5284 26.1243 5.41507 26.5109C6.5484 26.9976 7.70841 27.2809 8.89507 27.3609C12.6951 27.6209 14.5751 23.7709 13.2851 20.5709C12.6451 18.9909 10.7851 18.0409 9.52507 16.9209C9.36678 16.7806 9.24804 16.6013 9.18069 16.4008C9.11333 16.2003 9.09972 15.9856 9.1412 15.7782C9.18268 15.5708 9.27782 15.3778 9.41711 15.2187C9.5564 15.0595 9.73499 14.9396 9.93507 14.8709C10.7817 14.5709 11.6684 14.5409 12.5951 14.7809C12.7962 14.8327 13.0056 14.8433 13.2109 14.812C13.4162 14.7807 13.613 14.7083 13.7896 14.599C13.9661 14.4897 14.1187 14.3458 14.2383 14.176C14.3578 14.0062 14.4417 13.814 14.4851 13.6109L14.7651 12.2609C14.9317 11.4743 14.6117 11.0543 13.8051 11.0009C9.40507 10.7009 5.41507 12.5009 5.90507 17.6809C6.07507 19.4409 7.94507 20.6109 9.07507 21.8409C9.25525 22.034 9.37289 22.2765 9.41281 22.5373C9.45272 22.798 9.41309 23.0651 9.29903 23.304C9.18496 23.5429 9.00168 23.7427 8.77283 23.8776C8.54399 24.0125 8.28005 24.0764 8.01507 24.0609Z" fill="#909090"/>
<path d="M24.995 6.26092L28.485 29.7409C28.497 29.8188 28.4789 29.8984 28.4343 29.9634C28.3897 30.0284 28.322 30.074 28.245 30.0909L18.965 32.1009C18.9187 32.1101 18.871 32.1086 18.8254 32.0966C18.7798 32.0845 18.7375 32.0622 18.7018 32.0313C18.6661 32.0005 18.638 31.9619 18.6195 31.9185C18.6009 31.8751 18.5926 31.828 18.595 31.7809L20.275 4.94092C20.2786 4.89364 20.2929 4.84779 20.3169 4.80692C20.341 4.76604 20.3741 4.73123 20.4137 4.70515C20.4533 4.67907 20.4983 4.66242 20.5454 4.65649C20.5924 4.65056 20.6402 4.65549 20.685 4.67092L24.785 6.01092C24.8398 6.02893 24.8885 6.06187 24.9256 6.10603C24.9627 6.1502 24.9867 6.20384 24.995 6.26092Z" fill="#909090"/>
<path d="M100.735 12.3709C101.195 12.6843 101.745 12.8409 102.385 12.8409C102.858 12.8343 103.092 13.0676 103.085 13.5409C103.075 14.9109 101.495 15.5509 100.375 15.7609C100.117 15.8102 99.8798 15.9371 99.6957 16.1248C99.5117 16.3124 99.3893 16.5518 99.3451 16.8109L97.8451 25.6009C97.7972 25.8868 97.6544 26.1489 97.4391 26.3461C97.2238 26.5434 96.948 26.6646 96.6551 26.6909L94.935 26.8509C93.9417 26.9443 93.5484 26.5009 93.755 25.5209C94.3017 22.9076 94.8417 20.1876 95.3751 17.3609C95.5451 16.4309 95.295 15.6509 94.395 15.2409C94.2169 15.1624 94.0626 15.0385 93.9475 14.8815C93.8324 14.7245 93.7606 14.54 93.7393 14.3465C93.718 14.153 93.748 13.9573 93.8262 13.779C93.9045 13.6008 94.0282 13.4463 94.185 13.3309L95.8151 12.1309C96.1217 11.9043 96.3284 11.6076 96.435 11.2409C97.5084 7.4476 99.935 5.77093 103.715 6.21093C103.864 6.22638 104.006 6.2846 104.123 6.37862C104.24 6.47263 104.328 6.59844 104.375 6.74093C105.235 9.35093 102.405 9.48093 100.925 10.1409C100.717 10.2344 100.537 10.3819 100.405 10.5682C100.273 10.7544 100.193 10.9725 100.174 11.2C100.154 11.4275 100.196 11.656 100.295 11.8619C100.394 12.0678 100.546 12.2435 100.735 12.3709Z" fill="#909090"/>
<path d="M50.5351 12.5611C50.3417 13.3877 50.6151 13.5977 51.3551 13.1911C54.3251 11.5511 58.1451 12.1211 57.6951 16.0411C57.2951 19.4144 56.8217 22.7644 56.2751 26.0911C56.1884 26.5911 55.8917 26.8411 55.3851 26.8411L52.5151 26.8311C52.0484 26.8311 51.8584 26.6011 51.9451 26.1411L53.5851 17.3111C53.8451 15.9111 53.2951 15.4177 51.9351 15.8311L51.4951 15.9611C50.9541 16.1268 50.4696 16.4398 50.0954 16.8653C49.7211 17.2907 49.4718 17.8119 49.3751 18.3711L48.0851 25.8611C47.9717 26.5411 47.5717 26.8644 46.8851 26.8311L44.7951 26.7411C44.1817 26.7144 43.9317 26.4011 44.0451 25.8011L47.4351 7.38108C47.5884 6.55441 48.0851 6.18108 48.9251 6.26108L51.1751 6.49108C51.6751 6.53774 51.8684 6.80774 51.7551 7.30108L50.5351 12.5611Z" fill="#909090"/>
<path d="M92.0264 10.8563C93.2684 10.59 94.0866 9.49424 93.854 8.40881C93.6213 7.32338 92.4257 6.65932 91.1837 6.92559C89.9417 7.19186 89.1235 8.28763 89.3561 9.37306C89.5888 10.4585 90.7843 11.1225 92.0264 10.8563Z" fill="#909090"/>
<path d="M38.935 17.2011L41.805 19.3911C42.1174 19.6275 42.378 19.9261 42.5707 20.2684C42.7633 20.6107 42.8839 20.9894 42.925 21.3811C43.535 26.8211 37.825 27.8511 34.075 26.5411C33.5017 26.3411 33.1917 25.9411 33.145 25.3411C33.125 25.0811 33.175 24.8511 33.295 24.6511C33.7284 23.9111 34.3584 23.6444 35.185 23.8511C36.365 24.1311 37.4984 24.1177 38.585 23.8111C38.777 23.7571 38.9494 23.649 39.0817 23.4998C39.214 23.3505 39.3006 23.1664 39.3312 22.9693C39.3617 22.7722 39.335 22.5705 39.2541 22.3882C39.1732 22.2059 39.0416 22.0507 38.875 21.9411C36.275 20.2211 32.705 17.4511 36.185 14.1111C37.9384 12.4311 40.1484 11.8811 42.815 12.4611C43.6417 12.6344 43.9917 13.1377 43.865 13.9711L43.795 14.4811C43.7654 14.6818 43.6949 14.8743 43.5877 15.0466C43.4806 15.2189 43.3392 15.3674 43.1722 15.4827C43.0053 15.5981 42.8164 15.6779 42.6174 15.7172C42.4183 15.7564 42.2133 15.7544 42.015 15.7111C40.9617 15.4844 39.995 15.5444 39.115 15.8911C38.2817 16.2177 38.2217 16.6544 38.935 17.2011Z" fill="#909090"/>
<path d="M61.2378 26.3068C59.8147 25.4518 58.8731 23.9273 58.6202 22.0688C58.3673 20.2103 58.8238 18.17 59.8892 16.3968C60.4168 15.5188 61.078 14.7328 61.835 14.0837C62.5921 13.4345 63.4302 12.9349 64.3015 12.6135C65.1728 12.292 66.0603 12.155 66.9132 12.2101C67.7661 12.2653 68.5677 12.5116 69.2724 12.935C70.6955 13.7901 71.6371 15.3146 71.89 17.1731C72.1429 19.0316 71.6864 21.0718 70.621 22.845C70.0935 23.7231 69.4323 24.5091 68.6752 25.1582C67.9181 25.8074 67.08 26.3069 66.2087 26.6284C65.3374 26.9499 64.45 27.0869 63.597 27.0317C62.7441 26.9766 61.9425 26.7302 61.2378 26.3068ZM64.0162 23.9531C64.3043 24.0347 64.6209 24.0049 64.9478 23.8655C65.2747 23.7262 65.6056 23.4799 65.9216 23.1408C66.2376 22.8018 66.5324 22.3765 66.7894 21.8894C67.0463 21.4023 67.2602 20.8628 67.419 20.3017C67.5778 19.7407 67.6782 19.1691 67.7146 18.6196C67.751 18.07 67.7227 17.5533 67.6312 17.099C67.5398 16.6446 67.387 16.2615 67.1816 15.9715C66.9761 15.6815 66.7221 15.4903 66.434 15.4087C66.1459 15.3272 65.8294 15.357 65.5024 15.4964C65.1755 15.6357 64.8446 15.882 64.5286 16.221C64.2126 16.5601 63.9178 16.9853 63.6609 17.4725C63.4039 17.9596 63.19 18.4991 63.0312 19.0601C62.8724 19.6212 62.772 20.1928 62.7356 20.7423C62.6992 21.2919 62.7275 21.8085 62.819 22.2629C62.9104 22.7173 63.0632 23.1004 63.2687 23.3904C63.4741 23.6804 63.7281 23.8716 64.0162 23.9531Z" fill="#909090"/>
<path d="M75.7551 27.2408L75.1751 31.2408C75.1356 31.516 75.0009 31.7688 74.7945 31.9551C74.5881 32.1414 74.3229 32.2496 74.0451 32.2608L72.0351 32.3408C71.3884 32.3674 71.1217 32.0641 71.2351 31.4308L74.5851 13.1608C74.6317 12.8874 74.7817 12.6941 75.0351 12.5808C75.9617 12.1674 76.7851 12.3341 77.5051 13.0808C77.9384 13.5274 78.4317 13.6108 78.9851 13.3308C89.0451 8.25078 87.9651 26.5908 78.3151 26.8608C77.6751 26.8708 77.0151 26.7108 76.3951 26.7008C76.0217 26.6941 75.8084 26.8741 75.7551 27.2408ZM77.598 24.1971C77.8666 24.3034 78.1765 24.2979 78.5099 24.1808C78.8434 24.0636 79.1939 23.8372 79.5414 23.5144C79.889 23.1915 80.2267 22.7787 80.5354 22.2993C80.8441 21.82 81.1177 21.2836 81.3406 20.7207C81.5634 20.1578 81.7312 19.5795 81.8343 19.0187C81.9374 18.458 81.9738 17.9258 81.9415 17.4526C81.9091 16.9794 81.8086 16.5744 81.6458 16.2607C81.4829 15.947 81.2608 15.7308 80.9922 15.6245C80.7235 15.5181 80.4137 15.5237 80.0802 15.6408C79.7467 15.758 79.3962 15.9844 79.0487 16.3072C78.7012 16.63 78.3634 17.0429 78.0547 17.5222C77.746 18.0016 77.4724 18.538 77.2496 19.1009C77.0267 19.6638 76.8589 20.2421 76.7558 20.8028C76.6527 21.3636 76.6163 21.8957 76.6487 22.369C76.681 22.8422 76.7815 23.2472 76.9444 23.5609C77.1073 23.8745 77.3294 24.0907 77.598 24.1971Z" fill="#909090"/>
<path d="M86.395 25.7409L88.885 13.2209C88.927 13.0199 89.0379 12.8399 89.1986 12.7121C89.3594 12.5842 89.5597 12.5166 89.765 12.5209L91.705 12.5609C91.8318 12.5634 91.9566 12.5933 92.0708 12.6484C92.185 12.7036 92.2859 12.7828 92.3667 12.8807C92.4474 12.9785 92.506 13.0926 92.5385 13.2152C92.571 13.3378 92.5767 13.466 92.555 13.5909L90.335 26.0309C90.2981 26.2306 90.1934 26.4113 90.0385 26.5426C89.8835 26.6738 89.688 26.7474 89.485 26.7509L87.275 26.7909C87.1437 26.7934 87.0134 26.7665 86.8938 26.712C86.7742 26.6576 86.6684 26.5771 86.584 26.4764C86.4996 26.3757 86.4388 26.2573 86.4061 26.1301C86.3734 26.0028 86.3696 25.8699 86.395 25.7409Z" fill="#909090"/>
<path d="M109.215 20.711C110.235 18.3444 111.168 15.861 112.015 13.261C112.081 13.0551 112.212 12.8759 112.386 12.7498C112.561 12.6238 112.771 12.5576 112.985 12.561L115.465 12.601C116.045 12.6077 116.218 12.8744 115.985 13.401C114.172 17.441 112.355 21.341 110.535 25.101C109.102 28.0744 107.055 30.5144 104.395 32.421C104.211 32.5526 104.003 32.6457 103.782 32.6949C103.562 32.7441 103.334 32.7482 103.111 32.7072C102.889 32.6661 102.678 32.5806 102.489 32.4558C102.301 32.3311 102.14 32.1696 102.015 31.981C101.715 31.5077 101.605 30.9677 101.685 30.361C101.732 30.0077 101.905 29.731 102.205 29.531L105.045 27.611C105.387 27.3796 105.654 27.0534 105.812 26.673C105.97 26.2926 106.013 25.8747 105.935 25.471L103.685 13.511C103.565 12.8644 103.832 12.541 104.485 12.541H106.625C106.955 12.5404 107.273 12.6655 107.513 12.8907C107.753 13.1158 107.897 13.4237 107.915 13.751L108.355 20.561C108.435 21.8077 108.722 21.8577 109.215 20.711Z" fill="#909090"/>
</svg>
